<svg width="481" height="184" viewBox="0 0 481 184" fill="none" xmlns="http://www.w3.org/2000/svg">
<path d="M89.632 183.56C76.832 183.56 64.9707 181.256 54.048 176.648C43.1253 171.869 33.568 165.299 25.376 156.936C17.3547 148.573 11.1253 138.845 6.688 127.752C2.25067 116.659 0.0320005 104.797 0.0320005 92.168C0.0320005 79.368 2.25067 67.4213 6.688 56.328C11.1253 45.2347 17.3547 35.592 25.376 27.4C33.568 19.0373 43.04 12.552 53.792 7.94398C64.7147 3.16532 76.576 0.775986 89.376 0.775986C103.371 0.775986 115.659 3.16532 126.24 7.94398C136.821 12.7227 146.208 19.208 154.4 27.4L137.76 44.04C132.128 37.7253 125.216 32.776 117.024 29.192C109.003 25.608 99.7867 23.816 89.376 23.816C79.9893 23.816 71.3707 25.5227 63.52 28.936C55.6693 32.1787 48.8427 36.872 43.04 43.016C37.2373 49.16 32.7147 56.4133 29.472 64.776C26.4 73.1387 24.864 82.2693 24.864 92.168C24.864 102.067 26.4 111.197 29.472 119.56C32.7147 127.923 37.2373 135.176 43.04 141.32C48.8427 147.464 55.6693 152.243 63.52 155.656C71.3707 158.899 79.9893 160.52 89.376 160.52C100.469 160.52 110.112 158.728 118.304 155.144C126.496 151.389 133.408 146.355 139.04 140.04L155.68 156.424C147.488 164.957 137.845 171.613 126.752 176.392C115.829 181.171 103.456 183.56 89.632 183.56ZM217.242 183.56C207.343 183.56 198.383 181.341 190.362 176.904C182.511 172.296 176.367 165.981 171.93 157.96C167.493 149.939 165.274 140.637 165.274 130.056V59.4H188.314V129.032C188.314 135.688 189.423 141.491 191.642 146.44C194.031 151.219 197.445 154.888 201.882 157.448C206.319 160.008 211.525 161.288 217.498 161.288C226.543 161.288 233.626 158.472 238.746 152.84C243.866 147.037 246.426 139.101 246.426 129.032V59.4H269.466V130.056C269.466 140.637 267.247 149.939 262.81 157.96C258.373 165.981 252.229 172.296 244.378 176.904C236.698 181.341 227.653 183.56 217.242 183.56ZM306.234 181V8.45599H329.274V181H306.234ZM276.282 80.392V59.4H359.226V80.392H276.282ZM416.958 183.56C405.865 183.56 395.795 180.829 386.75 175.368C377.705 169.736 370.537 162.141 365.246 152.584C360.126 143.027 357.566 132.275 357.566 120.328C357.566 108.381 360.126 97.6293 365.246 88.072C370.537 78.5147 377.619 70.92 386.494 65.288C395.539 59.656 405.694 56.84 416.958 56.84C426.174 56.84 434.366 58.8027 441.534 62.728C448.873 66.4827 454.761 71.7733 459.198 78.6C463.635 85.256 466.11 93.0213 466.622 101.896V138.504C466.11 147.208 463.635 154.973 459.198 161.8C454.931 168.627 449.129 174.003 441.79 177.928C434.622 181.683 426.345 183.56 416.958 183.56ZM420.798 161.8C432.233 161.8 441.449 157.96 448.446 150.28C455.443 142.429 458.942 132.445 458.942 120.328C458.942 111.965 457.321 104.712 454.078 98.568C451.006 92.2533 446.569 87.3893 440.766 83.976C434.963 80.392 428.222 78.6 420.542 78.6C412.862 78.6 406.035 80.392 400.062 83.976C394.259 87.56 389.651 92.5093 386.238 98.824C382.995 104.968 381.374 112.051 381.374 120.072C381.374 128.264 382.995 135.517 386.238 141.832C389.651 147.976 394.345 152.84 400.318 156.424C406.291 160.008 413.118 161.8 420.798 161.8ZM457.406 181V148.232L461.758 118.536L457.406 89.096V59.4H480.702V181H457.406Z" fill="url(#paint0_linear_1_2)"/>
<path d="M54.048 176.648L53.8476 177.106L53.8537 177.109L54.048 176.648ZM25.376 156.936L25.0151 157.282L25.0188 157.286L25.376 156.936ZM6.688 127.752L7.15224 127.566L7.15224 127.566L6.688 127.752ZM6.688 56.328L7.15224 56.5137L7.15224 56.5137L6.688 56.328ZM25.376 27.4L25.0188 27.0501L25.0187 27.0502L25.376 27.4ZM53.792 7.94398L53.989 8.40357L53.9924 8.40206L53.792 7.94398ZM126.24 7.94398L126.446 7.4883L126.446 7.4883L126.24 7.94398ZM154.4 27.4L154.754 27.7535L155.107 27.4L154.754 27.0464L154.4 27.4ZM137.76 44.04L137.387 44.3728L137.739 44.7679L138.114 44.3935L137.76 44.04ZM117.024 29.192L116.82 29.6485L116.824 29.6501L117.024 29.192ZM63.52 28.936L63.7109 29.3982L63.7194 29.3945L63.52 28.936ZM43.04 43.016L42.6765 42.6727L42.6765 42.6727L43.04 43.016ZM29.472 64.776L29.0057 64.5952L29.0027 64.6036L29.472 64.776ZM29.472 119.56L29.0026 119.732L29.0058 119.741L29.472 119.56ZM43.04 141.32L42.6765 141.663L42.6765 141.663L43.04 141.32ZM63.52 155.656L63.3206 156.115L63.3291 156.118L63.52 155.656ZM118.304 155.144L118.504 155.602L118.512 155.599L118.304 155.144ZM139.04 140.04L139.391 139.684L139.017 139.315L138.667 139.707L139.04 140.04ZM155.68 156.424L156.041 156.77L156.383 156.414L156.031 156.068L155.68 156.424ZM126.752 176.392L126.554 175.933L126.552 175.934L126.752 176.392ZM89.632 183.06C76.8934 183.06 65.0987 180.767 54.2424 176.187L53.8537 177.109C64.8426 181.745 76.7706 184.06 89.632 184.06V183.06ZM54.2484 176.19C43.3833 171.436 33.8795 164.902 25.7332 156.586L25.0188 157.286C33.2565 165.695 42.8673 172.302 53.8476 177.106L54.2484 176.19ZM25.7368 156.59C17.7613 148.275 11.5665 138.602 7.15224 127.566L6.22376 127.938C10.6842 139.089 16.948 148.872 25.0152 157.282L25.7368 156.59ZM7.15224 127.566C2.73986 116.535 0.532001 104.737 0.532001 92.168H-0.467999C-0.467999 104.857 1.76148 116.782 6.22376 127.938L7.15224 127.566ZM0.532001 92.168C0.532001 79.427 2.74017 67.5439 7.15224 56.5137L6.22376 56.1423C1.76116 67.2988 -0.467999 79.309 -0.467999 92.168H0.532001ZM7.15224 56.5137C11.5661 45.479 17.76 35.8927 25.7333 27.7498L25.0187 27.0502C16.9493 35.2913 10.6845 44.9904 6.22376 56.1423L7.15224 56.5137ZM25.7332 27.7499C33.8795 19.4339 43.2971 12.9858 53.989 8.40356L53.595 7.48441C42.7829 12.1182 33.2565 18.6408 25.0188 27.0501L25.7332 27.7499ZM53.9924 8.40206C64.8473 3.65304 76.6398 1.27599 89.376 1.27599V0.275986C76.5122 0.275986 64.582 2.6776 53.5916 7.48591L53.9924 8.40206ZM89.376 1.27599C103.314 1.27599 115.529 3.65558 126.034 8.39967L126.446 7.4883C115.788 2.67506 103.427 0.275986 89.376 0.275986V1.27599ZM126.034 8.39967C136.561 13.1536 145.897 19.6043 154.046 27.7535L154.754 27.0464C146.519 18.8117 137.082 12.2918 126.446 7.4883L126.034 8.39967ZM154.046 27.0464L137.406 43.6864L138.114 44.3935L154.754 27.7535L154.046 27.0464ZM138.133 43.7072C132.451 37.3358 125.479 32.3451 117.224 28.7339L116.824 29.6501C124.953 33.2069 131.805 38.1149 137.387 44.3728L138.133 43.7072ZM117.228 28.7355C109.132 25.118 99.8441 23.316 89.376 23.316V24.316C99.7292 24.316 108.874 26.098 116.82 29.6485L117.228 28.7355ZM89.376 23.316C79.9274 23.316 71.2401 25.0342 63.3206 28.4775L63.7194 29.3945C71.5013 26.0111 80.0513 24.316 89.376 24.316V23.316ZM63.3291 28.4739C55.4135 31.7433 48.5279 36.4771 42.6765 42.6727L43.4035 43.3593C49.1574 37.2669 55.9252 32.614 63.7109 29.3981L63.3291 28.4739ZM42.6765 42.6727C36.8267 48.8665 32.2704 56.176 29.0058 64.5952L29.9382 64.9568C33.1589 56.6507 37.6479 49.4534 43.4035 43.3593L42.6765 42.6727ZM29.0027 64.6036C25.9083 73.0273 24.364 82.217 24.364 92.168H25.364C25.364 82.3217 26.8917 73.2501 29.9413 64.9484L29.0027 64.6036ZM24.364 92.168C24.364 102.119 25.9083 111.309 29.0027 119.732L29.9413 119.388C26.8917 111.086 25.364 102.014 25.364 92.168H24.364ZM29.0058 119.741C32.2704 128.16 36.8267 135.469 42.6765 141.663L43.4035 140.977C37.6479 134.883 33.1589 127.685 29.9382 119.379L29.0058 119.741ZM42.6765 141.663C48.5261 147.857 55.4089 152.675 63.3206 156.115L63.7194 155.197C55.9298 151.811 49.1592 147.071 43.4035 140.977L42.6765 141.663ZM63.3291 156.118C71.2464 159.388 79.9307 161.02 89.376 161.02V160.02C80.0479 160.02 71.495 158.409 63.7109 155.194L63.3291 156.118ZM89.376 161.02C100.522 161.02 110.236 159.22 118.504 155.602L118.104 154.686C109.988 158.236 100.416 160.02 89.376 160.02V161.02ZM118.512 155.599C126.763 151.817 133.732 146.742 139.413 140.373L138.667 139.707C133.084 145.967 126.229 150.962 118.096 154.689L118.512 155.599ZM138.689 140.396L155.329 156.78L156.031 156.068L139.391 139.684L138.689 140.396ZM155.319 156.078C147.175 164.562 137.588 171.18 126.554 175.933L126.95 176.851C138.103 172.047 147.802 165.353 156.041 156.77L155.319 156.078ZM126.552 175.934C115.701 180.681 103.398 183.06 89.632 183.06V184.06C103.514 184.06 115.957 181.66 126.952 176.85L126.552 175.934ZM190.362 176.904L190.109 177.335L190.12 177.342L190.362 176.904ZM171.93 157.96L172.368 157.718L172.368 157.718L171.93 157.96ZM165.274 59.4V58.9H164.774V59.4H165.274ZM188.314 59.4H188.814V58.9H188.314V59.4ZM191.642 146.44L191.186 146.645L191.19 146.654L191.195 146.664L191.642 146.44ZM201.882 157.448L202.132 157.015L202.132 157.015L201.882 157.448ZM238.746 152.84L239.116 153.176L239.121 153.171L238.746 152.84ZM246.426 59.4V58.9H245.926V59.4H246.426ZM269.466 59.4H269.966V58.9H269.466V59.4ZM262.81 157.96L263.248 158.202L263.248 158.202L262.81 157.96ZM244.378 176.904L244.628 177.337L244.631 177.335L244.378 176.904ZM217.242 183.06C207.421 183.06 198.545 180.86 190.604 176.466L190.12 177.342C198.221 181.823 207.266 184.06 217.242 184.06V183.06ZM190.615 176.473C182.842 171.911 176.762 165.661 172.368 157.718L171.492 158.202C175.973 166.301 182.18 172.681 190.109 177.335L190.615 176.473ZM172.368 157.718C167.977 149.781 165.774 140.566 165.774 130.056H164.774C164.774 140.709 167.008 150.096 171.492 158.202L172.368 157.718ZM165.774 130.056V59.4H164.774V130.056H165.774ZM165.274 59.9H188.314V58.9H165.274V59.9ZM187.814 59.4V129.032H188.814V59.4H187.814ZM187.814 129.032C187.814 135.743 188.932 141.618 191.186 146.645L192.098 146.235C189.914 141.363 188.814 135.633 188.814 129.032H187.814ZM191.195 146.664C193.626 151.526 197.106 155.27 201.632 157.881L202.132 157.015C197.783 154.506 194.437 150.911 192.089 146.216L191.195 146.664ZM201.632 157.881C206.157 160.492 211.452 161.788 217.498 161.788V160.788C211.598 160.788 206.481 159.524 202.132 157.015L201.632 157.881ZM217.498 161.788C226.655 161.788 233.883 158.932 239.116 153.176L238.376 152.504C233.369 158.012 226.431 160.788 217.498 160.788V161.788ZM239.121 153.171C244.343 147.252 246.926 139.186 246.926 129.032H245.926C245.926 139.017 243.389 146.823 238.371 152.509L239.121 153.171ZM246.926 129.032V59.4H245.926V129.032H246.926ZM246.426 59.9H269.466V58.9H246.426V59.9ZM268.966 59.4V130.056H269.966V59.4H268.966ZM268.966 130.056C268.966 140.566 266.763 149.781 262.372 157.718L263.248 158.202C267.732 150.096 269.966 140.709 269.966 130.056H268.966ZM262.372 157.718C257.978 165.661 251.898 171.911 244.125 176.473L244.631 177.335C252.56 172.681 258.767 166.301 263.248 158.202L262.372 157.718ZM244.128 176.471C236.536 180.857 227.58 183.06 217.242 183.06V184.06C227.725 184.06 236.86 181.825 244.628 177.337L244.128 176.471ZM306.234 181H305.734V181.5H306.234V181ZM306.234 8.45599V7.95599H305.734V8.45599H306.234ZM329.274 8.45599H329.774V7.95599H329.274V8.45599ZM329.274 181V181.5H329.774V181H329.274ZM276.282 80.392H275.782V80.892H276.282V80.392ZM276.282 59.4V58.9H275.782V59.4H276.282ZM359.226 59.4H359.726V58.9H359.226V59.4ZM359.226 80.392V80.892H359.726V80.392H359.226ZM306.734 181V8.45599H305.734V181H306.734ZM306.234 8.95599H329.274V7.95599H306.234V8.95599ZM328.774 8.45599V181H329.774V8.45599H328.774ZM329.274 180.5H306.234V181.5H329.274V180.5ZM276.782 80.392V59.4H275.782V80.392H276.782ZM276.282 59.9H359.226V58.9H276.282V59.9ZM358.726 59.4V80.392H359.726V59.4H358.726ZM359.226 79.892H276.282V80.892H359.226V79.892ZM386.75 175.368L386.486 175.792L386.492 175.796L386.75 175.368ZM365.246 152.584L364.805 152.82L364.809 152.826L365.246 152.584ZM365.246 88.072L364.809 87.8298L364.805 87.8359L365.246 88.072ZM386.494 65.288L386.23 64.8635L386.226 64.8658L386.494 65.288ZM441.534 62.728L441.294 63.1667L441.306 63.1731L441.534 62.728ZM459.198 78.6L458.779 78.8725L458.782 78.8773L459.198 78.6ZM466.622 101.896H467.122V101.882L467.121 101.867L466.622 101.896ZM466.622 138.504L467.121 138.533L467.122 138.519V138.504H466.622ZM459.198 161.8L458.779 161.527L458.774 161.535L459.198 161.8ZM441.79 177.928L442.022 178.371L442.026 178.369L441.79 177.928ZM448.446 150.28L448.816 150.617L448.819 150.613L448.446 150.28ZM454.078 98.568L453.628 98.7867L453.632 98.7941L453.636 98.8014L454.078 98.568ZM440.766 83.976L440.503 84.4015L440.513 84.407L440.766 83.976ZM400.062 83.976L399.805 83.5472L399.799 83.5506L400.062 83.976ZM386.238 98.824L385.798 98.5862L385.796 98.5906L386.238 98.824ZM386.238 141.832L385.793 142.06L385.797 142.068L385.801 142.075L386.238 141.832ZM400.318 156.424L400.061 156.853L400.061 156.853L400.318 156.424ZM457.406 181H456.906V181.5H457.406V181ZM457.406 148.232L456.911 148.159L456.906 148.196V148.232H457.406ZM461.758 118.536L462.253 118.608L462.263 118.536L462.253 118.463L461.758 118.536ZM457.406 89.096H456.906V89.1327L456.911 89.1691L457.406 89.096ZM457.406 59.4V58.9H456.906V59.4H457.406ZM480.702 59.4H481.202V58.9H480.702V59.4ZM480.702 181V181.5H481.202V181H480.702ZM416.958 183.06C405.951 183.06 395.972 180.352 387.008 174.94L386.492 175.796C395.619 181.307 405.778 184.06 416.958 184.06V183.06ZM387.014 174.944C378.043 169.358 370.934 161.827 365.683 152.342L364.809 152.826C370.139 162.456 377.366 170.114 386.486 175.792L387.014 174.944ZM365.687 152.348C360.61 142.87 358.066 132.201 358.066 120.328H357.066C357.066 132.348 359.643 143.183 364.805 152.82L365.687 152.348ZM358.066 120.328C358.066 108.455 360.61 97.7856 365.687 88.3081L364.805 87.8359C359.643 97.473 357.066 108.308 357.066 120.328H358.066ZM365.683 88.3142C370.935 78.8271 377.961 71.2955 386.762 65.7102L386.226 64.8658C377.278 70.5445 370.138 78.2022 364.809 87.8298L365.683 88.3142ZM386.758 65.7124C395.72 60.1327 405.782 57.34 416.958 57.34V56.34C405.606 56.34 395.359 59.1793 386.23 64.8635L386.758 65.7124ZM416.958 57.34C426.101 57.34 434.208 59.2865 441.294 63.1665L441.774 62.2894C434.524 58.3189 426.247 56.34 416.958 56.34V57.34ZM441.306 63.1731C448.568 66.8885 454.39 72.1201 458.779 78.8725L459.617 78.3275C455.132 71.4266 449.177 66.0768 441.762 62.2829L441.306 63.1731ZM458.782 78.8773C463.165 85.4514 465.615 93.1288 466.123 101.925L467.121 101.867C466.605 92.9139 464.106 85.0606 459.614 78.3226L458.782 78.8773ZM466.122 101.896V138.504H467.122V101.896H466.122ZM466.123 138.475C465.616 147.098 463.165 154.779 458.779 161.528L459.617 162.072C464.105 155.168 466.604 147.318 467.121 138.533L466.123 138.475ZM458.774 161.535C454.555 168.285 448.819 173.602 441.554 177.487L442.026 178.369C449.439 174.404 455.307 168.968 459.622 162.065L458.774 161.535ZM441.558 177.485C434.472 181.197 426.277 183.06 416.958 183.06V184.06C426.413 184.06 434.772 182.169 442.022 178.371L441.558 177.485ZM420.798 162.3C432.358 162.3 441.713 158.412 448.816 150.617L448.076 149.943C441.184 157.508 432.108 161.3 420.798 161.3V162.3ZM448.819 150.613C455.911 142.657 459.442 132.548 459.442 120.328H458.442C458.442 132.343 454.976 142.202 448.073 149.947L448.819 150.613ZM459.442 120.328C459.442 111.9 457.808 104.564 454.52 98.3346L453.636 98.8014C456.834 104.86 458.442 112.03 458.442 120.328H459.442ZM454.528 98.3493C451.415 91.9501 446.911 87.0105 441.02 83.545L440.513 84.407C446.227 87.7682 450.597 92.5565 453.628 98.7867L454.528 98.3493ZM441.029 83.5506C435.138 79.9119 428.303 78.1 420.542 78.1V79.1C428.141 79.1 434.789 80.8721 440.503 84.4014L441.029 83.5506ZM420.542 78.1C412.781 78.1 405.864 79.9119 399.805 83.5473L400.319 84.4047C406.207 80.8721 412.943 79.1 420.542 79.1V78.1ZM399.799 83.5506C393.918 87.183 389.251 92.1988 385.798 98.5862L386.678 99.0618C390.052 92.8199 394.6 87.937 400.325 84.4014L399.799 83.5506ZM385.796 98.5906C382.51 104.817 380.874 111.982 380.874 120.072H381.874C381.874 112.119 383.481 105.119 386.68 99.0574L385.796 98.5906ZM380.874 120.072C380.874 128.331 382.509 135.665 385.793 142.06L386.683 141.604C383.482 135.37 381.874 128.197 381.874 120.072H380.874ZM385.801 142.075C389.256 148.295 394.012 153.223 400.061 156.853L400.575 155.995C394.678 152.457 390.046 147.657 386.675 141.589L385.801 142.075ZM400.061 156.853C406.12 160.488 413.037 162.3 420.798 162.3V161.3C413.199 161.3 406.463 159.528 400.575 155.995L400.061 156.853ZM457.906 181V148.232H456.906V181H457.906ZM457.901 148.304L462.253 118.608L461.263 118.463L456.911 148.159L457.901 148.304ZM462.253 118.463L457.901 89.0229L456.911 89.1691L461.263 118.609L462.253 118.463ZM457.906 89.096V59.4H456.906V89.096H457.906ZM457.406 59.9H480.702V58.9H457.406V59.9ZM480.202 59.4V181H481.202V59.4H480.202ZM480.702 180.5H457.406V181.5H480.702V180.5Z" fill="#AAAAAA"/>
<defs>
<linearGradient id="paint0_linear_1_2" x1="243" y1="-75" x2="243" y2="248" gradientUnits="userSpaceOnUse">
<stop stop-color="white"/>
<stop offset="1" stop-color="#888888"/>
</linearGradient>
</defs>
</svg>
